<svg width="127" height="32" viewBox="0 0 127 32" fill="none" xmlns="http://www.w3.org/2000/svg">
<path fill-rule="evenodd" clip-rule="evenodd" d="M90.7204 11.3595C90.7158 12.5523 90.7112 13.7604 90.725 14.9594V15.8248C90.7662 19.0393 90.8074 22.6864 88.582 25.056C86.7481 27.1371 84.0282 28.3116 81.1641 28.3116C80.5666 28.3116 79.969 28.2498 79.3715 28.1468C76.1364 27.5904 73.602 25.5505 72.4275 22.5422C70.4288 17.1642 72.8396 12.7134 76.1364 10.6735C79.763 8.42754 84.1107 9.04569 87.3869 12.1777V0.185425H90.6632V0.453293C90.7456 3.52348 90.7456 6.61427 90.725 9.60204C90.725 10.1821 90.7227 10.7689 90.7204 11.3595ZM81.1229 25.0148C83.987 25.0148 87.1396 23.1397 87.2633 18.9568C87.3869 14.7946 84.2549 12.7134 81.3084 12.528H81.2878C78.3618 12.528 75.1886 14.4237 75.065 18.6271C75.0237 20.2344 75.5389 21.7591 76.4867 22.8924C77.5788 24.1906 79.1654 24.9118 81.1023 25.0148H81.1229ZM109.62 12.322C111.124 13.9704 111.948 16.1752 111.989 18.689V18.6899C111.989 19.4932 111.989 20.3171 112.01 21.0998C112.012 21.3302 112.015 21.5616 112.017 21.7936C112.038 23.7201 112.058 25.6963 111.948 27.5905L111.928 27.8377H108.816V25.1591C107.333 26.7869 105.54 27.8171 103.562 28.1468C103.088 28.2292 102.593 28.2705 102.119 28.2705C100.615 28.2705 99.0699 27.8583 97.7099 27.096C94.2482 25.1591 91.6726 20.7083 93.6713 15.1861C95.567 10.3026 100.533 8.79846 104.345 9.47844C106.405 9.84933 108.28 10.859 109.62 12.322ZM102.511 25.0354C105.437 24.9942 108.59 22.9955 108.569 18.7508C108.548 14.5267 105.334 12.5692 102.367 12.5486C99.4614 12.631 96.3706 14.6504 96.3912 18.8538C96.4118 21.7798 98.3281 24.953 102.511 25.0354ZM125.568 9.72569H124.723C124.126 9.70509 123.549 9.70509 122.972 9.7463C114.277 10.5087 114.544 17.7205 114.792 24.1082L114.8 24.348C114.838 25.4942 114.874 26.5707 114.874 27.6111V27.8789H118.089L118.109 27.6317C118.171 26.2099 118.13 24.7675 118.089 23.3664L118.088 23.3336C117.985 19.7399 117.888 16.355 119.758 14.5061C120.932 13.3522 122.848 12.8371 125.589 12.9607L125.857 12.9813V9.72569H125.568ZM69.9602 14.1041C69.9665 14.1169 69.9716 14.1273 69.9756 14.1352L70.1198 14.3207L56.8294 21.8416C57.8391 23.9846 59.879 25.2415 62.3104 25.2415C64.4946 25.2415 66.3696 24.2112 67.606 22.3361L67.7914 22.0683L69.8313 24.067L69.7077 24.2524C68.0181 26.9105 64.9891 28.3941 61.6304 28.2086C58.2718 28.0232 55.4488 26.2511 53.9653 23.4694L47.4334 27.1784L47.4128 27.1578C45.9704 27.8996 44.425 28.2498 42.9208 28.2498C40.6542 28.2498 38.4701 27.4462 36.7186 25.8596C33.6691 23.0985 32.8242 18.8538 34.5139 14.7534C35.7914 11.8274 38.6761 9.76691 42.0554 9.39601C45.4141 9.04572 48.5255 10.3851 50.4418 13.0019L50.586 13.1874L48.5255 15.2685L48.34 15.0006C46.9801 12.9813 44.528 11.9511 42.0554 12.3838C39.624 12.7959 37.8313 14.4649 37.2338 16.8551C36.595 19.5338 37.2544 22.1095 39.0264 23.7373C40.6542 25.2209 42.9414 25.6948 45.1668 24.9736C46.877 24.3348 50.4418 22.1301 52.152 21.0586C52.4029 20.9033 52.5915 20.7895 52.7378 20.7012C52.8438 20.6373 52.9276 20.5867 52.9968 20.5435C52.0284 15.3097 55.1604 11.4978 58.7251 10.0142C61.7335 8.75725 66.246 8.81907 69.2338 12.9195L69.2544 12.8989L69.4398 13.1668C69.7378 13.651 69.9011 13.9838 69.9602 14.1041ZM56.1494 18.7508L65.7721 13.311C64.7212 12.6104 63.5055 12.2601 62.2898 12.2601C61.3213 12.2601 60.3529 12.4868 59.4669 12.9401C57.3445 14.0322 56.1288 16.1339 56.1494 18.7508Z" fill="#012D67"/>
<path d="M11.7245 8.09788C11.0857 7.43851 10.3645 6.84096 9.60214 6.28462C10.3233 4.61559 11.436 3.1114 12.9196 1.89569C14.4032 3.1114 15.5365 4.61559 16.2576 6.28462C15.4746 6.82035 14.7741 7.41791 14.1353 8.09788C13.9498 7.95364 13.785 7.80941 13.5996 7.66517L12.9402 7.19125L12.2808 7.66517C12.0748 7.7888 11.9099 7.95364 11.7245 8.09788ZM6.40832 6.73793C5.29563 8.28333 4.63626 10.0348 4.40961 11.8274C5.5429 12.2601 6.59377 12.8371 7.56221 13.4965C8.18037 12.0129 9.087 10.6529 10.2203 9.45783C9.16943 8.34514 7.87129 7.41791 6.40832 6.73793ZM11.5596 17.7824C11.8481 17.6175 12.1366 17.4733 12.4251 17.329L12.9196 17.1024L13.4141 17.329C13.7026 17.4733 13.9911 17.6175 14.2795 17.7824C14.9183 16.7315 15.6601 15.763 16.5667 14.9182C15.8867 12.9401 14.6504 11.1269 12.9196 9.7257C11.2093 11.1269 9.95243 12.9195 9.29306 14.8976C10.1791 15.7424 10.9415 16.7109 11.5596 17.7824ZM21.4296 11.8274C21.2029 10.0348 20.5435 8.28333 19.4309 6.73793C17.9473 7.41791 16.6697 8.34514 15.6189 9.45783C16.7522 10.6529 17.6588 12.0335 18.277 13.4965C19.2454 12.8371 20.2963 12.2808 21.4296 11.8274ZM16.0104 18.9157C16.9788 19.6368 17.8236 20.4817 18.5654 21.4295C20.2345 20.4198 22.0683 19.7605 24.0052 19.4308C24.0876 17.3909 23.5725 15.3715 22.501 13.5377C19.6781 14.5679 17.3909 16.4636 16.0104 18.9157ZM9.8494 18.9157C8.44824 16.4636 6.16105 14.5679 3.35874 13.5377C2.26666 15.3715 1.77213 17.3909 1.83395 19.4102C3.77084 19.7399 5.62532 20.3992 7.27374 21.4089C8.01553 20.4817 8.88095 19.6368 9.8494 18.9157ZM13.9705 31.8146C20.1108 31.3406 25.0355 26.8281 25.5712 21.1822C23.1604 21.3677 20.8732 22.1919 18.9363 23.5724L18.0091 24.2318L17.3909 23.3046C16.2782 21.6355 14.7329 20.255 12.9196 19.2865C11.1063 20.255 9.56093 21.6355 8.44824 23.3046L7.83008 24.2318L6.90284 23.5724C4.94534 22.1919 2.67876 21.3677 0.267944 21.1822C0.803682 26.8487 5.72834 31.3406 11.8687 31.8146H13.9705Z" fill="#FA6B54"/>
</svg>
